<?xml version="1.0" encoding="UTF-8" standalone="no"?>
<!-- Created with Inkscape (http://www.inkscape.org/) -->

<svg
   xmlns:dc="http://purl.org/dc/elements/1.1/"
   xmlns:cc="http://creativecommons.org/ns#"
   xmlns:rdf="http://www.w3.org/1999/02/22-rdf-syntax-ns#"
   xmlns:svg="http://www.w3.org/2000/svg"
   xmlns="http://www.w3.org/2000/svg"
   xmlns:sodipodi="http://sodipodi.sourceforge.net/DTD/sodipodi-0.dtd"
   xmlns:inkscape="http://www.inkscape.org/namespaces/inkscape"
   width="349.89182mm"
   height="50.000046mm"
   viewBox="0 0 349.89181 50.000046"
   version="1.1"
   id="svg2121"
   inkscape:version="0.92.4 (5da689c313, 2019-01-14)"
   sodipodi:docname="backendpy_logo_2.svg">
  <defs
     id="defs2115" />
  <sodipodi:namedview
     id="base"
     pagecolor="#ffffff"
     bordercolor="#666666"
     borderopacity="1.0"
     inkscape:pageopacity="0.0"
     inkscape:pageshadow="2"
     inkscape:zoom="0.70710678"
     inkscape:cx="581.39388"
     inkscape:cy="77.045906"
     inkscape:document-units="mm"
     inkscape:current-layer="layer1"
     showgrid="false"
     fit-margin-top="0"
     fit-margin-left="0"
     fit-margin-right="0"
     fit-margin-bottom="0"
     inkscape:window-width="1850"
     inkscape:window-height="1016"
     inkscape:window-x="70"
     inkscape:window-y="27"
     inkscape:window-maximized="1" />
  <metadata
     id="metadata2118">
    <rdf:RDF>
      <cc:Work
         rdf:about="">
        <dc:format>image/svg+xml</dc:format>
        <dc:type
           rdf:resource="http://purl.org/dc/dcmitype/StillImage" />
        <dc:title></dc:title>
      </cc:Work>
    </rdf:RDF>
  </metadata>
  <g
     inkscape:label="Layer 1"
     inkscape:groupmode="layer"
     id="layer1"
     transform="translate(82.190506,-122.32143)">
    <path
       style="opacity:1;fill:#121212;fill-opacity:0.94117647;stroke:none;stroke-width:0.18875022;stroke-opacity:0"
       d="m 0,0 v 37.794922 37.794922 37.796876 37.79492 H 37.794922 75.589844 113.38672 V 113.38672 75.589844 37.794922 H 75.589844 37.794922 V 0 Z m 453.54297,0 v 37.794922 37.794922 37.796876 37.79492 h 37.79492 v -37.79492 h 37.79688 V 75.589844 H 491.33789 V 37.794922 0 Z m 75.5918,75.589844 h 37.79492 V 37.794922 h -37.79492 z m 0,37.796876 v 37.79492 h 37.79492 V 113.38672 Z M 982.67773,0 v 37.794922 h -37.79492 -37.79687 v 37.794922 37.796876 37.79492 h 37.79687 37.79492 37.79497 V 113.38672 75.589844 37.794922 0 Z M 151.18164,37.794922 v 37.794922 37.796876 h 37.79492 V 75.589844 h 37.79492 v 37.796876 h -37.79492 v 37.79492 h 37.79492 37.79493 V 113.38672 75.589844 37.794922 h -37.79493 -37.79492 z m 151.18164,0 v 37.794922 37.796876 37.79492 h 37.79492 37.79492 37.79493 V 113.38672 H 377.95312 340.1582 V 75.589844 h 37.79492 37.79493 V 37.794922 H 377.95312 340.1582 Z m 302.36133,0 v 37.794922 37.796876 37.79492 h 37.79492 37.79492 V 113.38672 H 642.51953 V 75.589844 h 37.79492 v 37.796876 h 37.79493 V 75.589844 37.794922 h -37.79493 -37.79492 z m 151.18164,0 v 37.794922 37.796876 37.79492 h 37.79492 V 113.38672 75.589844 h 37.79492 v 37.796876 37.79492 h 37.79493 V 113.38672 75.589844 37.794922 H 831.49609 793.70117 Z M 37.794922,75.589844 H 75.589844 V 113.38672 H 37.794922 Z m 907.087888,0 h 37.79492 v 37.796876 h -37.79492 z"
       transform="matrix(0.26458333,0,0,0.26458333,-82.190506,122.32143)"
       id="rect889-3-3-1"
       inkscape:connector-curvature="0" />
    <path
       style="opacity:1;fill:#34b24f;fill-opacity:0.94117647;stroke:none;stroke-width:0.18875022;stroke-opacity:0"
       d="m 1057.8574,37.794922 v 37.794922 37.796876 37.79492 37.79492 h 37.7969 v -37.79492 h 37.7949 37.7949 V 113.38672 75.589844 37.794922 h -37.7949 -37.7949 z m 151.1817,0 v 37.794922 37.796876 37.79492 h 37.7949 37.7969 v 37.79492 h 37.7949 V 151.18164 113.38672 75.589844 37.794922 h -37.7949 V 75.589844 113.38672 H 1246.834 V 75.589844 37.794922 Z m -113.3848,37.794922 h 37.7949 v 37.796876 h -37.7949 z"
       id="rect889-3-3-1-7-8-77-03"
       transform="matrix(0.26458333,0,0,0.26458333,-82.190506,122.32143)"
       inkscape:connector-curvature="0" />
  </g>
</svg>
